<?xml version="1.0" encoding="UTF-8"?>
<svg id="Layer_1" data-name="Layer 1" xmlns="http://www.w3.org/2000/svg" viewBox="0 0 1080 853.02">
  <defs>
    <style>
      .cls-1 {
        fill: #fff;
        stroke-width: 0px;
      }
    </style>
  </defs>
  <path class="cls-1" d="M855.07,853.02c2.28-9.76,4.07-19.67,6.96-29.25,4.78-15.85,10.35-31.47,15.42-47.24,1.39-4.31,2.21-8.81,3.56-14.32,3.59,4.98,6.65,9.23,9.72,13.48.28-.11.56-.22.85-.33-4.12-10.65-8.23-21.3-12.69-32.84h92.93c1.44,1.92,3.33,4.43,5.47,7.27-1.87,6.13-3.64,12-5.45,17.85-2.79,9-6.05,17.89-8.28,27.03-1.94,7.97-8.57,11.04-15.22,16.61,1.89,11.47,3.92,23.79,5.95,36.11.61.08,1.23.15,1.84.23,2.87-8.27,5.73-16.55,8.75-25.26,11.42-1.89,22.54-3.72,34.72-5.73-1.43,4.95-2.63,9.11-4.02,13.95,9.07,1.89,17.6,1.1,26.5.57,2.2-6.68,4.31-13.08,6.41-19.47,3.07-1.05,5.62-1.92,8.17-2.79-.06-.5-.11-1-.17-1.5h-66.68c4.49-15.69,8.61-30.06,13.04-45.53,3.66,5.41,6.62,9.77,9.57,14.13.38-.22.76-.43,1.14-.65-4.32-10.68-8.65-21.37-13.27-32.8h94.57c1.51,1.43,3.32,3.13,5.13,4.84v5.87c-2.95,8.13-5.91,16.25-8.92,24.54-11.25,1.99-22.26,3.93-35,6.18,2.41-7.13,4.21-12.48,5.98-17.71,3.91-.79,7.23-1.47,10.56-2.14-.06-.4-.11-.79-.17-1.19h-36.98c-2.77,9.22-5.41,18.01-8.42,28.03h47.48c3.23,4.78,5.92,8.75,8.28,12.23-5.02,17.34-8.65,34.26-19.95,47.98-.31.37-.03,1.22-.02,1.85h-121.27c-1.74-10.44-3.48-20.87-5.32-31.92-10.99,0-21.03-.03-31.08.03-1.48,0-2.96.48-4.44.74-.02.33-.03.65-.05.98,4.55,1.02,9.1,2.03,14.36,3.2-3.14,9.74-5.91,18.35-8.68,26.96h-31.29ZM954.09,764.23c-.07-.5-.14-1-.21-1.5h-39.85c-3.65,12.61-9.6,23.87-10.05,37.26h24.61c3.35-11.24,6.47-21.73,9.63-32.36,5.58-1.19,10.73-2.3,15.88-3.4Z"/>
  <path class="cls-1" d="M142.82,776.83c-3.33-9.4-6.66-18.8-10.02-28.19-.64-1.78-1.43-3.51-2.48-6.04h41.71c6.94,19.53,5.08,40.86,11.64,62.23v-12.74c11.42-16.51,22.83-33.01,34.35-49.67h28.16c1.61,2.11,3.54,4.62,5.76,7.53-5.12,16.09-10.48,32.01-15.24,48.11-5.39,18.24-10.25,36.64-15.34,54.97h-33.25c1.02-4.38,1.83-8.82,3.1-13.13,2.42-8.25,5.09-16.43,7.66-24.65-.62-.31-1.23-.63-1.85-.94-8.84,12.91-17.67,25.82-26.51,38.72h-7.82c-1.25-5.99-2.35-12.01-3.77-17.95-2.03-8.47-1.51-17.61-6.77-27.65-4.7,16.58-8.82,31.09-12.93,45.6h-33.25c2.78-10.22,5.43-20.47,8.35-30.65,5.15-17.95,10.45-35.85,15.75-53.76.54-1.82,1.47-3.53,2.68-6.39,3.74,5.19,7.04,9.77,10.33,14.34.21.18.42.36.62.53-.29-.09-.59-.19-.88-.28Z"/>
  <path class="cls-1" d="M4.25,853.02c2.85-10.28,5.48-20.64,8.59-30.84,6.01-19.71,12.28-39.33,18.61-59.52,2.83,3.86,5.63,7.7,8.44,11.53.45-.19.89-.39,1.34-.58-4.06-10.07-8.12-20.13-12.55-31.14h93.59c1.57,2.62,3.21,5.36,4.51,7.54-10.32,34.73-20.46,68.87-30.6,103h-33.25c4.09-13.52,8.18-27.05,12.57-41.56h-39.28l-.14,1.11c3.92.93,7.84,1.86,12.31,2.91-1.23,4.01-2.31,7.35-3.28,10.72-2.56,8.93-5.07,17.88-7.6,26.81H4.25ZM88.85,767.65c5.78-1.29,10.5-2.34,15.21-3.39-.09-.49-.19-.98-.28-1.48h-39.46c-2.92,8.96-5.77,17.71-8.77,26.91h25.8c2.64-7.76,5.03-14.79,7.49-22.04Z"/>
  <path class="cls-1" d="M753.36,853.02c2.51-20.84,11.31-39.92,16.86-59.91,2.69-9.69,6.28-19.12,9.79-29.66,3.18,4.37,6.1,8.4,9.03,12.43.29-.11.59-.22.88-.34-3.98-10.55-7.97-21.09-12.4-32.83h93c1.3,2.23,2.9,4.98,4.68,8.04-6.07,19.31-12.21,38.49-18.1,57.75-3.5,11.46-6.52,23.06-9.92,34.55-1.01,3.41-2.56,6.65-3.86,9.97h-31.29c1.57-6.56,2.91-13.18,4.76-19.65,2.08-7.24,4.62-14.35,7.2-22.25h-40.25c-.06.36-.12.73-.18,1.09,4.15,1.08,8.29,2.17,13.06,3.41-4.14,12.94-8.06,25.17-11.98,37.4h-31.29ZM812.22,763.06c-2.69,8.56-5.43,17.27-8.45,26.86h25.46c2.68-7.7,5.22-14.98,7.79-22.37,5.58-1.12,10.89-2.18,16.2-3.25-.04-.42-.08-.83-.12-1.25h-40.89Z"/>
  <path class="cls-1" d="M268.37,776.49c-4.41-11.1-8.82-22.21-13.49-33.96h95.44c7.98,12.49-2.42,23.05-4.01,35-11.34,2.08-22.42,4.12-35.42,6.5,2.06-6.64,3.7-11.93,5.43-17.52,3.67-.83,7.02-1.58,10.36-2.33-.02-.38-.05-.76-.07-1.13h-36.38c-2.67,8.32-5.5,17.14-8.73,27.22,16.08,1.39,31.54-.04,47.4.9,2.75,3.84,5.56,7.77,8.4,11.73-4.46,17.14-8.96,34.04-20.01,48.26-.31.4-.08,1.24-.1,1.87h-88.02c3.31-10.11,6.62-20.21,10.04-30.65,11.67-1.91,22.74-3.72,34.78-5.7-1.4,5-2.57,9.17-3.99,14.23h26.79c2.11-6.53,4.18-12.93,6.31-19.53,2.82-.85,5.41-1.62,7.99-2.4-.05-.61-.1-1.21-.15-1.82h-66.56c4.45-15.6,8.5-29.8,12.76-44.71,4.03,4.93,7.66,9.37,11.3,13.82l.14.58-.22-.36Z"/>
  <path class="cls-1" d="M368.36,770.58c-3.34-8.99-6.68-17.99-10.35-27.86h86.18c1.35,1.93,3.18,4.53,5.24,7.46-2.68,8.27-5.36,16.5-8.08,24.9-8.91,1.73-17.17,3.33-27.12,5.26,1.33-5.27,2.43-9.67,3.6-14.29,3.59-.63,6.72-1.18,10.31-1.82-5.63-2.68-16.36-3.09-34.62-1.4-2.8,8.24-5.76,16.98-9.19,27.07,7.58.4,13.86.73,20.88,1.1-1.25,6.77-2.4,12.97-3.73,20.19h-22.64c-1.74,5.53-3.18,10.12-4.89,15.57-4.64,1.13-9.59,2.33-14.54,3.54,0,.23-.01.46-.02.68h38.45c.96-1.9,2.1-4.14,3.81-7.53,7.96-1.9,16.69-3.99,27.56-6.58-3.97,13.46-7.23,25.07-12.26,36.14h-84.1c5.75-18.84,11.58-37.66,17.2-56.54,2.49-8.36,4.55-16.85,6.85-25.27.74-2.71,1.62-5.39,2.72-9.03,3.16,3.5,5.63,6.23,8.1,8.96.8,1.11,1.6,2.23,2.4,3.35.19.54.38,1.07.25.73.29.3-.1-.1-.49-.5-.51-1.38-1.01-2.76-1.52-4.14Z"/>
  <path class="cls-1" d="M428.69,853.02c1.06-5.36,1.66-10.86,3.26-16.06,7.58-24.62,15.42-49.15,23.41-74.44,2.81,4.22,5.56,8.35,8.31,12.48.44.36.87.72.36.3.69,0,.04,0-.61,0-1.11-4.62-1.93-9.33-3.41-13.83-1.98-6.01-4.47-11.86-7.16-18.87h85.74c1.43,1.96,3.47,4.75,5.58,7.63-2.76,8.34-5.38,16.27-8.24,24.91-8.58,1.63-17.08,3.24-27.31,5.19,1.32-5.36,2.33-9.48,3.44-14,3.83-.76,7.24-1.45,10.91-2.18-4.64-2.55-20.95-3.02-35.34-1.04-2.72,8.47-5.54,17.27-8.73,27.21h23.07c-2.15,7.41-4.01,13.82-6.09,20.95h-21.71c-2.11,5.43-3.96,10.2-5.98,15.4-4.38,1.22-8.97,2.5-13.57,3.78l.1.76h37.42c1.07-1.91,2.31-4.09,4.23-7.51,7.7-1.93,16.32-4.1,27.14-6.82-4,13.51-7.36,24.83-10.71,36.14h-84.1Z"/>
  <path class="cls-1" d="M655.57,853.02c7.15-22.57,14.38-45.12,21.41-67.73,2.31-7.42,4.08-15,6.38-23.58,3.77,5.42,6.94,9.98,10.1,14.53.34-.19.69-.37,1.03-.56-4.43-10.94-8.87-21.88-13.52-33.36h86.6c5.21,3.86,6.33,8.52,4.43,14.09-2.51,7.37-4.99,14.76-7.73,22.88-9.18,2.85-18.67,5.8-29.68,9.22,2.63-8.33,4.83-15.31,6.99-22.15,4.18-.83,7.53-1.49,11.81-2.34-6.83-2.38-24.11-2.7-37.47-.81-6,20.52-12.16,41.61-18.52,63.35-4.49,1.22-9.1,2.47-13.72,3.72.01.25.02.5.03.75h38.73c1.54-3.16,3.22-6.6,5.18-10.63,8.01-2.18,16.43-4.46,26.85-7.29-1.09,4.37-1.73,7.27-2.53,10.12-2.76,9.94-5.57,19.86-8.36,29.79h-88.02Z"/>
  <path class="cls-1" d="M522.57,853.02c9.01-30.22,18.02-60.44,27.26-91.46,3.34,4.58,5.71,7.85,8.09,11.11.48,1.44.97,2.88,1.45,4.32.17.02.34.04.51.06-.25.05-.5.11-.76.16-.46-1.46-.93-2.92-1.39-4.38-2.83-9.87-5.67-19.73-8.66-30.16h39.25c-8.3,28.06-16.55,55.92-24.75,83.65-5.49,1.59-10.08,2.93-16.92,4.92h41.68c1.1-2.09,2.28-4.32,3.95-7.5,8.29-2.11,17.27-4.4,27.01-6.87-3.78,12.82-7.21,24.49-10.65,36.16h-86.06Z"/>
  <path class="cls-1" d="M1066.31,56.11c30.01,202.02,11.05,397.4-60.53,587.35-9.81-67.9-26.73-123.83-60.57-185.08,14.38-68.66,22.55-138.41,24.24-210.98-177.29,108.58-319.58,249.62-429.5,424.34-110.03-174.91-252.3-315.96-429.48-424.31.93,72.34,10.68,141.68,23.99,211.51-31.93,56.56-51.11,118.22-60.39,183.32C2.04,452.63-15.86,257.7,13.44,56.08c55.54,23.5,107.95,50.12,158.63,80.28,50.69,30.17,98.99,63.81,145.91,101.03C381.1,147.75,454.5,69.03,539.91,0c85.19,68.53,158.63,147.51,222.09,237.36,93.17-74.3,193.97-134.46,304.31-181.25ZM413.83,322.07c45.43,44.64,87.23,91.88,126.19,142.76,39.04-51.14,80.73-98.18,126.05-142.71-31.6-60.14-73.68-110.54-126.07-153.21-52.43,42.45-94.28,93-126.17,153.16Z"/>
  <path class="cls-1" d="M220.74,405.29c35.26,27.83,67,57.61,98.55,88.74-25.04,62.65-44.94,126.84-58.68,193.32h-130.92c18.23-97.69,47.93-190.96,91.05-282.06Z"/>
  <path class="cls-1" d="M859.14,405.11c42.82,90.12,72.69,183.78,91.06,282.07h-130.81c-1.74-8.01-3.2-16.46-5.43-24.7-7.39-27.36-14.98-54.68-22.68-81.96-2.17-7.68-4.88-15.22-7.58-22.74-6.53-18.2-13.23-36.33-19.8-54.51-1.01-2.8-1.77-5.7-2.87-9.29,30.77-31.24,63.29-60.66,98.11-88.87Z"/>
</svg>